<svg width="19" height="11" viewBox="0 0 19 11" fill="none" xmlns="http://www.w3.org/2000/svg">
<path d="M18.1599 0.683831C17.9021 0.426059 17.5524 0.28125 17.1878 0.28125C16.8232 0.28125 16.4735 0.426059 16.2157 0.683831L9.40942 7.49008L2.60317 0.683831C2.34384 0.433363 1.99651 0.294771 1.63599 0.297903C1.27547 0.301036 0.930603 0.445644 0.675667 0.70058C0.420731 0.955516 0.276125 1.30038 0.272991 1.6609C0.269859 2.02142 0.408451 2.36875 0.658918 2.62808L8.43729 10.4065C8.69514 10.6642 9.04482 10.809 9.40942 10.809C9.77402 10.809 10.1237 10.6642 10.3815 10.4065L18.1599 2.62808C18.4177 2.37023 18.5625 2.02056 18.5625 1.65596C18.5625 1.29136 18.4177 0.941682 18.1599 0.683831Z" fill="#FFAB48"/>
</svg>
