<svg width="12" height="19" viewBox="0 0 12 19" fill="none" xmlns="http://www.w3.org/2000/svg">
<path d="M1.27758 0.890863C1.01981 1.14871 0.875 1.49839 0.875 1.86299C0.875 2.22759 1.01981 2.57726 1.27758 2.83511L8.08383 9.64136L1.27758 16.4476C1.02711 16.7069 0.888521 17.0543 0.891654 17.4148C0.894787 17.7753 1.03939 18.1202 1.29433 18.3751C1.54927 18.6301 1.89413 18.7747 2.25465 18.7778C2.61517 18.7809 2.9625 18.6423 3.22183 18.3919L11.0002 10.6135C11.258 10.3556 11.4028 10.006 11.4028 9.64136C11.4028 9.27676 11.258 8.92709 11.0002 8.66924L3.22183 0.890863C2.96398 0.63309 2.61431 0.488281 2.24971 0.488281C1.88511 0.488281 1.53543 0.63309 1.27758 0.890863Z" fill="white"/>
</svg>
