<svg width="11" height="19" viewBox="0 0 11 19" fill="none" xmlns="http://www.w3.org/2000/svg">
<path d="M0.402582 0.402581C0.144809 0.660432 0 1.01011 0 1.37471C0 1.73931 0.144809 2.08898 0.402582 2.34683L7.20883 9.15308L0.402582 15.9593C0.152114 16.2187 0.0135214 16.566 0.0166542 16.9265C0.019787 17.287 0.164395 17.6319 0.419331 17.8868C0.674267 18.1418 1.01913 18.2864 1.37965 18.2895C1.74017 18.2926 2.0875 18.154 2.34683 17.9036L10.1252 10.1252C10.383 9.86736 10.5278 9.51768 10.5278 9.15308C10.5278 8.78848 10.383 8.43881 10.1252 8.18096L2.34683 0.402581C2.08898 0.144809 1.73931 0 1.37471 0C1.01011 0 0.660432 0.144809 0.402582 0.402581Z" fill="white"/>
</svg>
