<svg width="19" height="15" viewBox="0 0 19 15" fill="none" xmlns="http://www.w3.org/2000/svg">
<path d="M8.48681 0.330173C8.70285 0.541647 8.82422 0.828428 8.82422 1.12745C8.82422 1.42648 8.70285 1.71326 8.48681 1.92473L2.78237 7.50681L8.48681 13.0889C8.69673 13.3016 8.81289 13.5864 8.81026 13.8821C8.80763 14.1778 8.68644 14.4606 8.47277 14.6697C8.2591 14.8788 7.97006 14.9974 7.66791 15C7.36575 15.0025 7.07464 14.8889 6.8573 14.6834L0.3381 8.30409C0.122056 8.09261 0.000689507 7.80583 0.000689507 7.50681C0.000689507 7.20778 0.122056 6.921 0.3381 6.70953L6.8573 0.330173C7.07341 0.118763 7.36647 0 7.67205 0C7.97763 0 8.2707 0.118763 8.48681 0.330173Z" fill="#FFAB48"/>
<rect x="0.882812" y="6.17578" width="17.6471" height="2.64706" rx="1.32353" fill="#FFAB48"/>
</svg>
