<svg width="22" height="22" viewBox="0 0 22 22" fill="none" xmlns="http://www.w3.org/2000/svg">
<path d="M4.02542 7.13281C3.07963 7.3708 2.25329 7.94597 1.70167 8.75025C1.15005 9.55453 0.911099 10.5326 1.02972 11.5006C1.14835 12.4686 1.61638 13.36 2.34588 14.0073C3.07538 14.6546 4.01615 15.0132 4.99142 15.0158H5.99142M10.9914 20.0158V11.0158V20.0158ZM10.9914 20.0158L8.49142 18.0158L10.9914 20.0158ZM10.9914 20.0158L13.4914 18.0158L10.9914 20.0158Z" stroke="#FFAB48" stroke-width="2" stroke-linecap="round" stroke-linejoin="round"/>
<path d="M14.8209 5.15334C14.4791 3.79992 13.6355 2.62708 12.461 1.8726C11.2866 1.11812 9.86916 0.838434 8.49614 1.09025C7.12312 1.34206 5.89722 2.10653 5.06694 3.22868C4.23667 4.35084 3.86414 5.74671 4.02488 7.13334C4.02488 7.13334 4.17788 8.01534 4.49088 8.51534" stroke="#FFAB48" stroke-width="2" stroke-linecap="round" stroke-linejoin="round"/>
<path d="M15.9922 15.0156C16.6982 15.0151 17.3962 14.8651 18.04 14.5755C18.6839 14.2858 19.2592 13.8631 19.7279 13.3351C20.1966 12.8071 20.5482 12.1858 20.7596 11.5122C20.9709 10.8385 21.0371 10.1277 20.954 9.42657C20.8708 8.72545 20.6401 8.04989 20.277 7.44436C19.9139 6.83884 19.4267 6.31707 18.8474 5.91341C18.2682 5.50975 17.61 5.23334 16.9162 5.10239C16.2224 4.97143 15.5087 4.98889 14.8222 5.15362L13.4922 5.51562" stroke="#FFAB48" stroke-width="2" stroke-linecap="round" stroke-linejoin="round"/>
</svg>
