<svg width="18" height="18" viewBox="0 0 18 18" fill="none" xmlns="http://www.w3.org/2000/svg">
<path d="M6.18594 16.9594V13.0781L3.28906 15.2156C4.10469 15.975 5.08906 16.5656 6.18594 16.9594ZM11.8109 16.9594C12.9078 16.5656 13.8922 15.975 14.7078 15.2156L11.8109 13.05V16.9594ZM1.03906 11.8125C1.12344 12.0938 1.23594 12.3469 1.37656 12.6281L2.47344 11.8125H1.03906ZM15.5234 11.8125L16.6203 12.6281C16.7328 12.375 16.8453 12.0938 16.9578 11.8125H15.5234Z" fill="#2A5F9E"/>
<path d="M6.60859 10.6875H0.730469C0.814844 11.0813 0.927344 11.4469 1.03984 11.8125H2.47422L1.37734 12.6281C1.60234 13.1063 1.85547 13.5281 2.16484 13.95L5.06172 11.8125H6.18672V12.375L2.89609 14.7937L3.28984 15.1875L6.18672 13.0781V16.9594C6.55234 17.1 6.91797 17.1844 7.31172 17.2688V10.6875H6.60859ZM17.268 10.6875H10.6867V17.2688C11.0805 17.1844 11.4461 17.0719 11.8117 16.9594V13.0781L14.7086 15.1875C15.1023 14.8219 15.4398 14.4281 15.7773 14.0063L12.768 11.8125H14.6805L16.3961 13.0781C16.4805 12.9375 16.5648 12.7688 16.6211 12.6281L15.5242 11.8125H16.9586C17.0711 11.4469 17.1836 11.0813 17.268 10.6875Z" fill="white"/>
<path d="M2.16406 13.95C2.38906 14.2594 2.61406 14.5406 2.86719 14.8219L6.18594 12.4031V11.8406H5.06094L2.16406 13.95ZM12.7953 11.8125L15.8047 14.0062C15.9172 13.8656 16.0016 13.725 16.1141 13.5844C16.1422 13.5562 16.1422 13.5281 16.1703 13.5281C16.2547 13.3875 16.3672 13.2188 16.4516 13.0781L14.6797 11.8125H12.7953Z" fill="#ED4C5C"/>
<path d="M11.8109 1.04102V4.92227L14.7078 2.78477C13.8922 2.02539 12.9078 1.43477 11.8109 1.04102ZM6.18594 1.04102C5.08906 1.43477 4.10469 2.02539 3.28906 2.78477L6.18594 4.95039V1.04102ZM16.9578 6.18789C16.8734 5.90664 16.7609 5.65352 16.6203 5.37227L15.5234 6.18789H16.9578ZM2.47344 6.18789L1.37656 5.37227C1.26406 5.65352 1.15156 5.90664 1.03906 6.18789H2.47344Z" fill="#2A5F9E"/>
<path d="M11.3898 7.31172H17.2398C17.1555 6.91797 17.043 6.55234 16.9305 6.18672H15.4961L16.593 5.37109C16.368 4.89297 16.1148 4.47109 15.8055 4.04922L12.9367 6.18672H11.8117V5.62422L15.1023 3.20547L14.7086 2.81172L11.8117 4.92109V1.03984C11.4461 0.899219 11.0805 0.814844 10.6867 0.730469V7.31172H11.3898ZM0.730469 7.31172H7.31172V0.730469C6.91797 0.814844 6.55234 0.927344 6.18672 1.03984V4.92109L3.28984 2.81172C2.89609 3.17734 2.55859 3.57109 2.22109 3.99297L5.23047 6.18672H3.31797L1.60234 4.92109C1.51797 5.06172 1.43359 5.23047 1.37734 5.37109L2.47422 6.18672H1.03984C0.927344 6.55234 0.814844 6.91797 0.730469 7.31172Z" fill="white"/>
<path d="M15.8336 4.04961C15.6086 3.74023 15.3836 3.45898 15.1305 3.17773L11.8117 5.59648V6.15898H12.9367L15.8336 4.04961ZM5.20234 6.18711L2.22109 3.99336C2.10859 4.13398 2.02422 4.27461 1.91172 4.41523C1.88359 4.44336 1.88359 4.47148 1.85547 4.47148C1.77109 4.61211 1.65859 4.78086 1.57422 4.92148L3.28984 6.18711H5.20234Z" fill="#ED4C5C"/>
<path d="M17.2688 7.3125H10.6875V0.73125C10.1531 0.61875 9.59062 0.5625 9 0.5625C8.40938 0.5625 7.84687 0.61875 7.3125 0.73125V7.3125H0.73125C0.61875 7.84687 0.5625 8.40938 0.5625 9C0.5625 9.59062 0.61875 10.1531 0.73125 10.6875H7.3125V17.2688C7.84687 17.3813 8.40938 17.4375 9 17.4375C9.59062 17.4375 10.1531 17.3813 10.6875 17.2688V10.6875H17.2688C17.3813 10.1531 17.4375 9.59062 17.4375 9C17.4375 8.40938 17.3813 7.84687 17.2688 7.3125Z" fill="#ED4C5C"/>
</svg>
