<svg width="158" height="158" viewBox="0 0 158 158" fill="none" xmlns="http://www.w3.org/2000/svg">
<g filter="url(#filter0_d_100_9981)">
<path d="M48.65 79.2556H51.9549V88.4248C51.9549 89.5528 53.1117 90.4674 54.5385 90.4674H64.9416C66.3684 90.4674 67.5252 89.5528 67.5252 88.4248V79.2556H72.6923V88.4248C72.6923 89.5528 73.8491 90.4674 75.2758 90.4674H85.6794C87.1063 90.4674 88.2631 89.5528 88.2631 88.4248V79.2556H91.5679C92.9946 79.2556 94.1514 78.3412 94.1514 77.2131C94.1514 76.0849 92.9946 75.1705 91.5679 75.1705H90.0203V46.6074H97.0843L119.638 56.7692C123.823 58.6732 127.36 63.5075 127.36 67.3255V81.1396C127.36 82.2677 128.517 83.1823 129.944 83.1823C131.371 83.1823 132.526 82.2677 132.526 81.1396V67.3255C132.526 62.051 127.996 55.8589 122.205 53.2241L99.0482 42.7903C98.6586 42.6146 98.2177 42.5223 97.7692 42.5223H90.0197V32.0784C90.0197 30.9503 88.8631 30.0358 87.4362 30.0358H83.0842V13.0425C83.0842 11.9146 81.9274 11 80.5006 11H59.717C58.2902 11 57.1335 11.9146 57.1335 13.0425V30.0358H52.7813C51.3545 30.0358 50.1977 30.9503 50.1977 32.0784V75.1705H48.65C47.2232 75.1705 46.0664 76.0849 46.0664 77.2131C46.0664 78.3412 47.2228 79.2556 48.65 79.2556ZM62.3577 86.3823H57.1217V79.2556H62.3577V86.3823ZM83.0955 86.3823H77.8592V79.2556H83.0955V86.3823ZM62.3002 15.0851H77.9167V30.0358H62.3002V15.0851ZM55.3648 34.1209H84.8526V75.1705H55.3648V34.1209Z" fill="#FFAB48"/>
<path d="M129.944 87.2676C122.744 87.2676 116.887 91.8979 116.887 97.5896C116.887 102.582 121.394 106.757 127.36 107.708V134.916H21.5024L27.838 123.239C29.6823 119.839 35.1936 116.967 39.8719 116.967H119.471C120.898 116.967 122.055 116.052 122.055 114.924C122.055 113.796 120.898 112.882 119.471 112.882H111.72V68.6144C111.72 67.8791 111.22 67.2004 110.411 66.8377L99.0443 61.7425C97.8027 61.1864 96.2264 61.5307 95.5222 62.5118C94.8186 63.4932 95.2543 64.7395 96.4954 65.2963L106.553 69.8046V95.5473H48.6502C47.2234 95.5473 46.0666 96.4619 46.0666 97.5898V105.76C46.0666 106.888 47.2234 107.803 48.6502 107.803H98.8028C100.23 107.803 101.386 106.888 101.386 105.76C101.386 104.632 100.23 103.717 98.8028 103.717H51.2337V99.6323H106.553V112.882H39.8722C33.1226 112.882 25.7508 116.724 23.0897 121.628L15.2092 136.153C14.8668 136.783 14.9484 137.508 15.4265 138.082C15.9047 138.655 16.7148 139 17.5837 139H129.944C131.371 139 132.528 138.085 132.528 136.957V107.708C138.493 106.757 143 102.582 143 97.5896C143 91.8982 137.143 87.2676 129.944 87.2676ZM129.944 103.827C125.594 103.827 122.055 101.029 122.055 97.5898C122.055 94.151 125.593 91.353 129.944 91.353C134.293 91.353 137.832 94.1507 137.832 97.5898C137.832 101.029 134.293 103.827 129.944 103.827Z" fill="#0080C8"/>
</g>
<defs>
<filter id="filter0_d_100_9981" x="0" y="0" width="158" height="158" filterUnits="userSpaceOnUse" color-interpolation-filters="sRGB">
<feFlood flood-opacity="0" result="BackgroundImageFix"/>
<feColorMatrix in="SourceAlpha" type="matrix" values="0 0 0 0 0 0 0 0 0 0 0 0 0 0 0 0 0 0 127 0" result="hardAlpha"/>
<feOffset dy="4"/>
<feGaussianBlur stdDeviation="7.5"/>
<feComposite in2="hardAlpha" operator="out"/>
<feColorMatrix type="matrix" values="0 0 0 0 0 0 0 0 0 0 0 0 0 0 0 0 0 0 0.1 0"/>
<feBlend mode="normal" in2="BackgroundImageFix" result="effect1_dropShadow_100_9981"/>
<feBlend mode="normal" in="SourceGraphic" in2="effect1_dropShadow_100_9981" result="shape"/>
</filter>
</defs>
</svg>
