<svg width="158" height="150" viewBox="0 0 158 150" fill="none" xmlns="http://www.w3.org/2000/svg">
<g filter="url(#filter0_d_100_9963)">
<path d="M76.84 55.5556C77.674 56.3477 79.0607 56.1876 79.6946 55.2315L92.174 36.3975C92.7462 35.5343 92.5099 34.3702 91.6467 33.7979C90.7843 33.2267 89.6202 33.4631 89.0479 34.3253L77.8019 51.2978L71.5529 45.3643C70.802 44.6514 69.6154 44.6827 68.9016 45.4336C68.1888 46.1847 68.22 47.3711 68.9709 48.084C68.9699 48.084 76.8332 55.5498 76.84 55.5556Z" fill="#FFAB48"/>
<path d="M78.1189 84.1541C78.4773 84.3181 78.8738 84.405 79.2683 84.405H79.2839C79.6853 84.4031 80.0875 84.3113 80.447 84.1394C108.959 70.5798 113.791 41.3241 114.591 32.6807C114.775 30.707 113.664 28.8691 111.827 28.1074C106.151 25.751 102.293 20.4815 101.758 14.3555C101.592 12.4698 99.981 11 98.0827 11H98.0602L59.6482 11.2256C57.7117 11.2364 56.1385 12.708 55.99 14.6485C55.5174 20.7764 51.7157 26.084 46.0682 28.4999C44.2499 29.2773 43.1658 31.1249 43.3728 33.0977C44.2753 41.7313 49.4501 70.9295 78.1189 84.1541ZM47.5429 31.9472C54.4677 28.9863 59.1327 22.4853 59.7254 14.9746L98.0269 14.75C98.7077 22.2442 103.439 28.6856 110.389 31.5704C110.7 31.7003 110.888 32.0068 110.858 32.335C110.106 40.4354 105.607 67.7488 79.2615 80.5486C52.7644 68.0605 47.9491 40.7998 47.1014 32.708C47.0673 32.3809 47.2449 32.0752 47.5429 31.9472Z" fill="#FFAB48"/>
<path d="M52.225 42.3417C52.4516 43.1756 53.5092 43.9393 54.5267 43.6591C55.5248 43.3836 56.1156 42.3573 55.8441 41.3582C55.3666 39.5984 54.9652 37.8143 54.6498 36.0467C59.7435 32.7274 63.5237 27.7733 65.3784 21.9873L92.4562 21.828C94.3781 27.5907 98.216 32.5018 103.349 35.7607C103.055 37.533 102.674 39.3232 102.216 41.0897C101.956 42.0926 102.559 43.116 103.561 43.3758C104.565 43.6355 105.587 43.0331 105.847 42.0301C106.384 39.956 106.822 37.8505 107.146 35.7723C107.327 34.6112 106.796 33.4697 105.794 32.8641C101.013 29.9765 97.4788 25.4461 95.8429 20.1084C95.4748 18.9081 94.3429 18.0742 93.0872 18.0742H93.0696L64.7201 18.2401C63.4565 18.248 62.3255 19.0986 61.971 20.3076C60.3988 25.6639 56.9174 30.2352 52.1703 33.1795C51.1752 33.7958 50.6586 34.9432 50.853 36.1034C51.2025 38.1766 51.6635 40.2753 52.225 42.3417Z" fill="#FFAB48"/>
<path d="M102.055 47.9027C101.098 47.5062 100.003 47.9633 99.607 48.9203C95.2741 59.4223 88.4147 67.4066 79.2136 72.6614C69.9411 67.5081 62.9822 59.5912 58.5272 49.1224C58.1208 48.1703 57.0193 47.7269 56.0672 48.1322C55.114 48.5375 54.6706 49.639 55.0759 50.5912C59.9382 62.015 67.5984 70.6272 77.8435 76.1868C78.2751 76.4221 78.7477 76.5384 79.2194 76.5384C79.7029 76.5384 80.1852 76.4163 80.6246 76.1711C90.7926 70.4983 98.3452 61.8109 103.074 50.35C103.469 49.3929 103.013 48.2972 102.055 47.9027Z" fill="#FFAB48"/>
<path d="M27.0283 106.943C23.3711 106.943 20.3945 109.919 20.3945 113.577C20.3945 117.235 23.3711 120.211 27.0283 120.211C30.6865 120.211 33.6631 117.235 33.6631 113.577C33.6631 109.919 30.6874 106.943 27.0283 106.943ZM27.0283 116.461C25.4384 116.461 24.1446 115.168 24.1446 113.577C24.1446 111.987 25.4384 110.693 27.0283 110.693C28.6191 110.693 29.9131 111.987 29.9131 113.577C29.9131 115.168 28.6191 116.461 27.0283 116.461Z" fill="#0080C8"/>
<path d="M141.655 88.5848C139.252 85.0535 134.413 84.1181 130.869 86.4989L106.357 102.904L101.125 102.61L100.991 101.27C100.469 96.0233 96.4587 91.8426 91.238 91.1043C91.2048 91.0996 91.1725 91.0956 91.1394 91.0927L64.7273 88.7782C63.8339 88.6386 60.9735 87.8173 53.1142 83.3095C49.0291 80.9668 44.4266 79.6445 39.7508 79.4648V74.5595C39.7508 72.0976 37.7489 70.0957 35.2871 70.0957H19.4638C17.0029 70.0957 15 72.0986 15 74.5595V122.87C15 125.331 17.0029 127.335 19.4638 127.335H35.2871C37.7479 127.335 39.7508 125.331 39.7508 122.87V121.539L62.8387 130.282C62.8894 130.303 64.7645 131.004 68.2116 130.678C68.2215 130.677 106.574 125.149 106.574 125.149C106.584 125.147 106.592 125.145 106.602 125.144C109.88 124.621 112.97 123.236 115.542 121.138C115.565 121.119 115.587 121.099 115.61 121.08L140.387 98.7957C143.307 96.203 143.853 91.8133 141.655 88.5848ZM137.886 95.9999L113.137 118.261C111.089 119.921 108.629 121.02 106.024 121.439L67.6902 126.965C67.6813 126.966 67.6687 126.968 67.6569 126.97C67.6511 126.97 67.6443 126.972 67.6385 126.973C66.492 127.152 65.2977 127.077 64.0876 126.746L39.7508 117.53V96.1171C39.7508 95.0809 38.911 94.242 37.8759 94.242C36.8398 94.242 36.001 95.0809 36.001 96.1171V122.87C36.001 123.265 35.6806 123.585 35.2871 123.585H19.4638C19.0702 123.585 18.75 123.265 18.75 122.87V74.5595C18.75 74.1659 19.0702 73.8457 19.4638 73.8457H35.2871C35.6806 73.8457 36.001 74.1659 36.001 74.5595V87.6473C36.001 88.6834 36.8408 89.5224 37.8759 89.5224C38.912 89.5224 39.7508 88.6826 39.7508 87.6473V83.2187C43.7733 83.3964 47.7303 84.5448 51.2479 86.5634C60.7274 91.9998 63.3748 92.3749 64.245 92.498C64.2781 92.5028 64.3104 92.5057 64.3435 92.5096L90.7585 94.8242C94.2409 95.3387 96.9108 98.1356 97.2595 101.641L97.359 102.641L61.9949 104.824C61.9705 104.822 61.9461 104.82 61.9246 104.818C60.7781 104.715 59.743 104.173 59.0076 103.292C58.3446 102.496 57.162 102.389 56.3671 103.053C55.5711 103.716 55.4637 104.898 56.1278 105.693C57.5037 107.344 59.4452 108.331 61.5906 108.554C62.7488 108.675 99.4215 106.27 99.4215 106.27L106.773 106.683C107.179 106.707 107.583 106.596 107.92 106.369L132.958 89.6132C134.796 88.3778 137.308 88.8621 138.554 90.6942C139.694 92.37 139.41 94.6474 137.886 95.9999Z" fill="#0080C8"/>
</g>
<defs>
<filter id="filter0_d_100_9963" x="0" y="0" width="158" height="149.764" filterUnits="userSpaceOnUse" color-interpolation-filters="sRGB">
<feFlood flood-opacity="0" result="BackgroundImageFix"/>
<feColorMatrix in="SourceAlpha" type="matrix" values="0 0 0 0 0 0 0 0 0 0 0 0 0 0 0 0 0 0 127 0" result="hardAlpha"/>
<feOffset dy="4"/>
<feGaussianBlur stdDeviation="7.5"/>
<feComposite in2="hardAlpha" operator="out"/>
<feColorMatrix type="matrix" values="0 0 0 0 0 0 0 0 0 0 0 0 0 0 0 0 0 0 0.1 0"/>
<feBlend mode="normal" in2="BackgroundImageFix" result="effect1_dropShadow_100_9963"/>
<feBlend mode="normal" in="SourceGraphic" in2="effect1_dropShadow_100_9963" result="shape"/>
</filter>
</defs>
</svg>
