<svg width="158" height="159" viewBox="0 0 158 159" fill="none" xmlns="http://www.w3.org/2000/svg">
<g filter="url(#filter0_d_100_9971)">
<path d="M136.344 109.152C135.583 107.826 134.17 107.006 132.641 107.004C132.586 107.004 132.542 107.03 132.489 107.034C132.436 107.03 132.391 107.004 132.337 107.004H128.07V61.9129C129.471 59.3904 130.207 56.5534 130.205 53.6686C130.202 53.0446 130.168 52.4204 130.098 51.8004L139.565 42.3332C143.726 38.1631 143.726 31.4118 139.565 27.2409C139.3 27.0025 139.025 26.777 138.739 26.5669V15.2668C138.735 12.9112 136.827 11.0019 134.472 11H102.47C100.114 11.0019 98.2051 12.9112 98.2032 15.2668H83.19C79.8071 10.7431 73.4766 9.65817 68.7802 12.796C64.0828 15.9338 62.6628 22.1977 65.5467 27.0543L62.2996 34.9237C61.8122 35.9756 61.8006 37.1855 62.2674 38.2471L63.4197 41.0422C63.5662 41.377 63.7566 41.6916 63.9841 41.9787L62.1207 46.4769C61.6697 47.5658 62.1863 48.8139 63.2752 49.265C64.363 49.7163 65.6112 49.1986 66.0624 48.1108L67.9228 43.6204C68.2851 43.5774 68.6406 43.4876 68.9794 43.3528L71.753 42.2091C72.8067 41.7795 73.6456 40.9464 74.0822 39.8946L77.3792 31.9538C77.8576 31.8436 78.3285 31.6999 78.7875 31.5251C80.5404 30.7899 82.062 29.5953 83.1929 28.067H98.2032C98.2051 30.4226 100.114 32.3319 102.47 32.3338H119.379L115.006 36.7079C110.18 36.1621 105.352 37.7031 101.735 40.9435C98.1182 44.1829 96.0577 48.8129 96.0693 53.6686C96.0674 56.5534 96.8018 59.3904 98.2032 61.9129V107.004H95.7704C94.2412 107.006 92.8289 107.824 92.0624 109.147L90.0037 112.759L87.5358 106.591V64.3349C87.5339 61.9795 85.6246 60.0712 83.269 60.0681H27.8003C25.4447 60.0712 23.5364 61.9795 23.5335 64.3349V106.591L15.1522 127.546C15.0664 127.773 15.0205 128.013 15.0166 128.257C15.0155 128.285 15 128.309 15 128.338V134.738C15.0019 137.093 16.9112 139.003 19.2667 139.005H91.8026C94.1581 139.003 96.0674 137.093 96.0693 134.738V128.338C96.0693 128.309 96.0546 128.285 96.0538 128.257C96.0498 128.013 96.0039 127.773 95.9179 127.546L95.3818 126.204H138.744C140.263 126.201 141.664 125.39 142.427 124.076C143.186 122.762 143.192 121.141 142.439 119.821L136.344 109.152ZM70.1456 38.2559L67.3652 39.4141L67.3623 39.4121L66.2099 36.6259L68.7364 30.5105C69.9277 31.3162 71.2705 31.8709 72.6827 32.1424L70.1456 38.2559ZM72.255 27.5826C69.8633 26.5923 68.3037 24.2592 68.3037 21.6703C68.3027 19.0814 69.8623 16.7472 72.2539 15.757C74.6447 14.7657 77.3977 15.3127 79.2288 17.1429C81.0589 18.974 81.6068 21.7259 80.6166 24.1178C79.9769 25.6939 78.7318 26.9478 77.1604 27.5983C75.5891 28.2496 73.8224 28.2438 72.255 27.5826ZM85.1529 23.8003C85.4439 22.3929 85.4439 20.9408 85.1529 19.5335H98.2032V23.8003H85.1529ZM102.47 28.067V15.2668H134.472V24.4379C130.878 23.5728 127.092 24.6342 124.472 27.2409L123.646 28.067H102.47ZM126.037 31.7098L126.039 31.7088L127.488 30.2575C129.993 27.773 134.035 27.7819 136.528 30.2761C139.024 32.7704 139.032 36.8115 136.547 39.3165L128.852 47.012C127.114 42.9367 123.868 39.6915 119.793 37.9532L126.037 31.7098ZM113.137 40.8672C120.206 40.8672 125.938 46.5989 125.938 53.6686C125.938 60.7382 120.206 66.4689 113.137 66.4689C106.068 66.4689 100.336 60.7382 100.336 53.6686C100.344 46.6019 106.071 40.8751 113.137 40.8672ZM102.47 81.4029H111.004V96.3361H102.47V81.4029ZM102.47 100.603H111.004C113.359 100.601 115.268 98.6917 115.27 96.3361V81.4029C115.268 79.0474 113.359 77.1381 111.004 77.1363H102.47V66.9698C108.695 71.9905 117.579 71.9905 123.804 66.9698V107.004H102.47V100.603ZM27.8003 64.3349H83.269V104.87H27.8003V64.3349ZM27.1118 109.137H83.9575L90.7849 126.204H67.8231L66.3222 120.797C65.8056 118.951 64.1258 117.675 62.2097 117.671H48.8596C46.9445 117.674 45.2647 118.951 44.7491 120.796L43.2462 126.204H20.2844L27.1118 109.137ZM62.2097 121.937L63.3953 126.204H47.674L48.8596 121.937H62.2097ZM19.2667 134.738V130.471H91.8026V134.738H19.2667ZM92.0281 117.821L95.7704 111.27H132.337C132.391 111.27 132.436 111.244 132.489 111.24C132.542 111.244 132.586 111.27 132.641 111.27L138.735 121.937H93.6748L92.0281 117.821Z" fill="#0080C8"/>
<path d="M70.1498 38.2559L67.3694 39.4141L67.3665 39.4121L66.2141 36.6259L68.7406 30.5105C69.9319 31.3162 71.2748 31.8709 72.6869 32.1424L70.1498 38.2559ZM72.2592 27.5826C69.8676 26.5923 68.3079 24.2592 68.3079 21.6703C68.3069 19.0814 69.8665 16.7472 72.2582 15.757C74.6489 14.7657 77.4019 15.3127 79.2331 17.1429C81.0632 18.974 81.611 21.7259 80.6208 24.1178C79.9811 25.6939 78.7361 26.9478 77.1647 27.5983C75.5933 28.2496 73.8267 28.2438 72.2592 27.5826ZM85.1571 23.8003C85.4481 22.3929 85.4481 20.9408 85.1571 19.5335H98.2074V23.8003H85.1571ZM102.474 28.067V15.2668H134.476V24.4379C130.882 23.5728 127.096 24.6342 124.476 27.2409L123.65 28.067H102.474ZM126.041 31.7098L126.043 31.7088L127.492 30.2575C129.998 27.773 134.039 27.7819 136.533 30.2761C139.028 32.7704 139.036 36.8115 136.551 39.3165L128.856 47.012C127.118 42.9367 123.872 39.6915 119.797 37.9532L126.041 31.7098ZM113.141 40.8672C120.21 40.8672 125.942 46.5989 125.942 53.6686C125.942 60.7382 120.21 66.4689 113.141 66.4689C106.072 66.4689 100.34 60.7382 100.34 53.6686C100.348 46.6019 106.075 40.8751 113.141 40.8672Z" fill="white"/>
<path d="M51.8908 67.0949L32.6899 86.2958C32.1352 86.831 31.9135 87.624 32.1088 88.3702C32.3042 89.1164 32.8862 89.6983 33.6324 89.8936C34.3784 90.089 35.1715 89.8673 35.7065 89.3126L54.9074 70.1116C55.7161 69.2748 55.7045 67.9437 54.8811 67.1214C54.0588 66.2981 52.7277 66.2863 51.8908 67.0949Z" fill="#FFAB48"/>
<path d="M34.1995 79.2698C34.765 79.2708 35.3079 79.0452 35.7074 78.6448L42.108 72.244C42.9167 71.4072 42.9049 70.077 42.0817 69.2537C41.2594 68.4305 39.9282 68.4198 39.0914 69.2274L32.6906 75.628C32.0813 76.2385 31.8987 77.1555 32.2288 77.9524C32.5589 78.7503 33.3363 79.2698 34.1995 79.2698Z" fill="#FFAB48"/>
<path d="M113.139 60.0679C116.673 60.0679 119.539 57.2024 119.539 53.6681C119.539 50.1328 116.673 47.2676 113.139 47.2676C109.604 47.2676 106.738 50.1328 106.738 53.6681C106.742 57.2006 109.606 60.064 113.139 60.0679ZM113.139 51.5344C114.317 51.5344 115.272 52.4895 115.272 53.6681C115.272 54.846 114.317 55.8011 113.139 55.8011C111.96 55.8011 111.005 54.846 111.005 53.6681C111.007 52.4905 111.961 51.5363 113.139 51.5344Z" fill="#FFAB48"/>
<path d="M74.7502 25.5C76.8211 25.5 78.5 23.8211 78.5 21.7502C78.5 19.6788 76.8211 18 74.7502 18C72.6788 18 71 19.6788 71 21.7502C71.0023 23.82 72.68 25.4977 74.7502 25.5ZM74.7502 20.5C75.4404 20.5 76 21.0596 76 21.7502C76 22.4404 75.4404 23 74.7502 23C74.0596 23 73.4999 22.4404 73.4999 21.7502C73.5011 21.0602 74.0601 20.5011 74.7502 20.5Z" fill="#FFAB48"/>
</g>
<defs>
<filter id="filter0_d_100_9971" x="0" y="0" width="158" height="158.004" filterUnits="userSpaceOnUse" color-interpolation-filters="sRGB">
<feFlood flood-opacity="0" result="BackgroundImageFix"/>
<feColorMatrix in="SourceAlpha" type="matrix" values="0 0 0 0 0 0 0 0 0 0 0 0 0 0 0 0 0 0 127 0" result="hardAlpha"/>
<feOffset dy="4"/>
<feGaussianBlur stdDeviation="7.5"/>
<feComposite in2="hardAlpha" operator="out"/>
<feColorMatrix type="matrix" values="0 0 0 0 0 0 0 0 0 0 0 0 0 0 0 0 0 0 0.1 0"/>
<feBlend mode="normal" in2="BackgroundImageFix" result="effect1_dropShadow_100_9971"/>
<feBlend mode="normal" in="SourceGraphic" in2="effect1_dropShadow_100_9971" result="shape"/>
</filter>
</defs>
</svg>
