<svg width="140" height="140" viewBox="0 0 140 140" fill="none" xmlns="http://www.w3.org/2000/svg">
<g filter="url(#filter0_d_109_14343)">
<path d="M131.867 48.9336H72.1342C71.5684 48.9338 71.026 49.1586 70.626 49.5587L36.4923 83.6924C36.1781 84.1444 35.9649 84.6589 35.8672 85.2006V93.7341C35.8672 94.2999 36.092 94.8424 36.492 95.2425C36.8921 95.6426 37.4348 95.8673 38.0006 95.8673H72.1342V117.201H52.934C52.3682 117.201 51.8255 117.425 51.4256 117.825C51.0254 118.226 50.8006 118.768 50.8006 119.334V127.867C50.8006 128.433 51.0254 128.976 51.4256 129.376C51.8255 129.777 52.3682 130.001 52.934 130.001H108.401C108.967 130.001 109.51 129.777 109.91 129.376C110.31 128.976 110.535 128.433 110.535 127.867V119.334C110.535 118.768 110.31 118.226 109.91 117.825C109.51 117.425 108.967 117.201 108.401 117.201H89.2011V110.801H114.801V123.602C114.801 124.166 115.026 124.709 115.426 125.109C115.826 125.51 116.369 125.733 116.935 125.733H134.001V121.468H119.068V108.667C119.068 108.102 118.843 107.559 118.443 107.159C118.043 106.759 117.501 106.534 116.935 106.534H89.2011V95.8673H102.001C102.567 95.8673 103.109 95.6425 103.509 95.2423L133.377 65.3753C133.777 64.9753 134.001 64.4328 134.001 63.867V51.067C133.977 50.7896 133.923 50.5158 133.839 50.2498C133.677 49.8602 133.404 49.5271 133.053 49.2928C132.703 49.0585 132.29 48.9334 131.867 48.9336ZM117.818 53.2004H126.717L122.452 57.467H113.551L117.818 53.2004ZM66.6173 74.5338L70.8841 70.2672H79.7844L75.5178 74.5338H66.6173ZM71.251 78.8004L66.9843 83.0673H58.0839L62.3507 78.8004H71.251ZM75.1508 66.0004L79.4176 61.7336H88.3178L84.0512 66.0004H75.1508ZM77.2842 78.8004H86.1844L81.9178 83.0673H73.0173L77.2842 78.8004ZM81.5508 74.5338L85.8176 70.2672H94.7178L90.4512 74.5338H81.5508ZM90.0842 66.0004L94.351 61.7336H103.251L98.9846 66.0004H90.0842ZM92.2176 78.8004H101.118L96.8512 83.0673H87.951L92.2176 78.8004ZM96.4844 74.5338L100.751 70.2672H109.651L105.385 74.5338H96.4844ZM105.018 66.0004L109.284 61.7336H118.185L113.918 66.0004H105.018ZM102.884 53.2004H111.785L107.518 57.467H98.6176L102.884 53.2004ZM87.951 53.2004H96.8512L92.5846 57.467H83.6842L87.951 53.2004ZM73.0173 53.2004H81.9178L77.651 57.467H68.7507L73.0173 53.2004ZM64.4839 61.7336H73.3844L69.1176 66.0004H60.2173L64.4839 61.7336ZM55.9505 70.2672H64.8509L60.5841 74.5338H51.6839L55.9505 70.2672ZM47.4171 78.8004H56.3175L52.0507 83.0673H43.1505L47.4171 78.8004ZM106.268 121.468V125.733H55.0674V121.468H106.268ZM76.4009 117.201V95.8673H84.9343V117.201H76.4009ZM129.734 62.9839L101.118 91.6007H40.134V87.3341H97.7345C98.3003 87.3339 98.8428 87.109 99.2427 86.7089L129.734 56.2169V62.9839Z" fill="#0080C8"/>
<path d="M57.2012 33.999C57.2012 30.2015 56.0751 26.4894 53.9653 23.3319C51.8556 20.1744 48.8569 17.7135 45.3485 16.2603C41.8402 14.8072 37.9797 14.4269 34.2552 15.1678C30.5307 15.9086 27.1095 17.7372 24.4243 20.4224C21.7392 23.1076 19.9105 26.5288 19.1698 30.2532C18.4288 33.9777 18.8091 37.8382 20.2622 41.3466C21.7155 44.855 24.1764 47.8537 27.3338 49.9634C30.4914 52.0731 34.2035 53.1993 38.001 53.1993C43.0914 53.1936 47.9718 51.1689 51.5713 47.5693C55.1709 43.9699 57.1956 39.0894 57.2012 33.999ZM38.001 48.9325C35.0475 48.9325 32.1602 48.0566 29.7044 46.4157C27.2486 44.7749 25.3346 42.4425 24.2042 39.7138C23.0739 36.9851 22.7783 33.9825 23.3545 31.0856C23.9306 28.1888 25.353 25.5279 27.4414 23.4394C29.5298 21.351 32.1908 19.9287 35.0875 19.3525C37.9844 18.7763 40.9871 19.072 43.7158 20.2023C46.4445 21.3326 48.7768 23.2467 50.4176 25.7025C52.0586 28.1583 52.9344 31.0455 52.9344 33.999C52.9293 37.958 51.3544 41.7535 48.5549 44.553C45.7554 47.3525 41.9599 48.9274 38.001 48.9325Z" fill="#FFAB48"/>
<path d="M27.3359 34.0008H31.6026C31.6026 32.3034 32.2769 30.6755 33.4773 29.4753C34.6775 28.2749 36.3054 27.6006 38.0028 27.6006V23.334C35.1747 23.3374 32.4636 24.4623 30.4639 26.4619C28.4643 28.4617 27.3394 31.1727 27.3359 34.0008Z" fill="#FFAB48"/>
<path d="M35.8672 2H40.134V10.5332H35.8672V2Z" fill="#FFAB48"/>
<path d="M35.8672 57.4668H40.134V66.0002H35.8672V57.4668Z" fill="#FFAB48"/>
<path d="M6 31.8672H14.5332V36.134H6V31.8672Z" fill="#FFAB48"/>
<path d="M61.4688 31.8672H70.0022V36.134H61.4688V31.8672Z" fill="#FFAB48"/>
<path d="M13.0234 12.0421L16.0399 9.02539L22.4396 15.425L19.4231 18.4417L13.0234 12.0421Z" fill="#FFAB48"/>
<path d="M13.0156 55.9504L19.4153 49.5508L22.4318 52.5673L16.0321 58.9669L13.0156 55.9504Z" fill="#FFAB48"/>
<path d="M53.5469 15.4289L59.9465 9.0293L62.963 12.0458L56.5634 18.4455L53.5469 15.4289Z" fill="#FFAB48"/>
<path d="M53.5469 52.5751L56.5636 49.5586L60.8289 53.8239L57.8124 56.8404L53.5469 52.5751Z" fill="#FFAB48"/>
</g>
<defs>
<filter id="filter0_d_109_14343" x="0" y="0" width="140" height="140" filterUnits="userSpaceOnUse" color-interpolation-filters="sRGB">
<feFlood flood-opacity="0" result="BackgroundImageFix"/>
<feColorMatrix in="SourceAlpha" type="matrix" values="0 0 0 0 0 0 0 0 0 0 0 0 0 0 0 0 0 0 127 0" result="hardAlpha"/>
<feOffset dy="4"/>
<feGaussianBlur stdDeviation="3"/>
<feComposite in2="hardAlpha" operator="out"/>
<feColorMatrix type="matrix" values="0 0 0 0 0 0 0 0 0 0 0 0 0 0 0 0 0 0 0.1 0"/>
<feBlend mode="normal" in2="BackgroundImageFix" result="effect1_dropShadow_109_14343"/>
<feBlend mode="normal" in="SourceGraphic" in2="effect1_dropShadow_109_14343" result="shape"/>
</filter>
</defs>
</svg>
