<svg width="140" height="128" viewBox="0 0 140 128" fill="none" xmlns="http://www.w3.org/2000/svg">
<g filter="url(#filter0_d_109_14329)">
<path d="M133.838 54.4827C133.507 53.686 132.73 53.166 131.867 53.166H106.267C105.701 53.166 105.159 53.391 104.759 53.791L79.1586 79.3911C78.5483 80.0015 78.3659 80.9183 78.6963 81.7162C79.0264 82.5129 79.8046 83.0329 80.6671 83.0329H106.267C106.833 83.0329 107.376 82.808 107.776 82.4079L108.401 81.7828L119.709 93.0908C119.309 93.9252 119.067 94.8479 119.067 95.8329C119.067 98.6105 120.855 100.957 123.334 101.839V110.767H104.134C102.958 110.767 102.001 109.81 102.001 108.634C102.001 107.458 102.958 106.5 104.134 106.5H106.267C109.796 106.5 112.667 103.628 112.667 100.1C112.667 96.5706 109.796 93.6996 106.267 93.6996H91.3338V91.5663C91.3338 90.3881 90.3786 89.4329 89.2005 89.4329H82.8005V87.2996H78.5338V89.4329H61.4671V87.2996H57.2004V89.4329H50.8004C49.6223 89.4329 48.6671 90.3881 48.6671 91.5663V93.6996H33.7337C30.2047 93.6996 27.3337 96.5706 27.3337 100.1C27.3337 103.628 30.2047 106.5 33.7337 106.5H35.8671C37.0431 106.5 38.0004 107.458 38.0004 108.634C38.0004 109.81 37.0431 110.767 35.8671 110.767H16.6668V101.839C19.1446 100.957 20.9335 98.6105 20.9335 95.8329C20.9335 94.8479 20.6913 93.9252 20.2922 93.0908L31.6002 81.7828L32.2252 82.4079C32.6252 82.808 33.168 83.0329 33.7335 83.0329H59.3336C60.196 83.0329 60.9741 82.5132 61.3045 81.7162C61.6345 80.9183 61.4524 80.0015 60.8421 79.3911L35.2421 53.791C34.842 53.391 34.2993 53.166 33.7337 53.166H8.1335C7.27094 53.166 6.49287 53.6857 6.16246 54.4827C5.83239 55.2806 6.0145 56.1974 6.6248 56.8079L28.5833 78.7662L17.2753 90.0743C16.4409 89.6751 15.5183 89.4329 14.5332 89.4329C11.0041 89.4329 8.13316 92.3039 8.13316 95.8329C8.13316 98.6105 9.92192 100.957 12.3998 101.839V117.167H16.6665V115.034H35.8665C39.3956 115.034 42.2666 112.161 42.2666 108.634C42.2666 105.104 39.3956 102.234 35.8665 102.234H33.7332C32.5571 102.234 31.5999 101.276 31.5999 100.1C31.5999 98.9237 32.5571 97.9663 33.7332 97.9663H48.6666V115.034C48.6666 116.211 49.6218 117.167 50.7999 117.167H89.2C90.3781 117.167 91.3333 116.211 91.3333 115.034V97.9663H106.267C107.443 97.9663 108.4 98.9237 108.4 100.1C108.4 101.276 107.443 102.234 106.267 102.234H104.133C100.604 102.234 97.7333 105.104 97.7333 108.634C97.7333 112.161 100.604 115.034 104.133 115.034H123.334V117.167H127.6V101.839C130.078 100.957 131.867 98.6105 131.867 95.8329C131.867 92.3039 128.996 89.4329 125.467 89.4329C124.482 89.4329 123.559 89.6751 122.724 90.0743L111.417 78.7662L133.376 56.8079C133.985 56.1972 134.167 55.2806 133.838 54.4827ZM34.6169 78.7661L30.3502 74.4994H37.117L41.3837 78.7661H34.6169ZM54.1837 78.7661H47.4169L43.1503 74.4994H49.917L54.1837 78.7661ZM45.6504 70.2327H38.8836L34.6169 65.966H41.3837L45.6504 70.2327ZM32.8503 57.4327L37.117 61.6994H30.3502L26.0836 57.4327H32.8503ZM13.2835 57.4327H20.0503L24.317 61.6994H17.5502L13.2835 57.4327ZM26.0836 70.2327L21.8169 65.966H28.5837L32.8503 70.2327H26.0836ZM14.5335 97.9661C13.3574 97.9661 12.4002 97.0087 12.4002 95.8328C12.4002 94.6567 13.3574 93.6994 14.5335 93.6994C15.7094 93.6994 16.6668 94.6567 16.6668 95.8328C16.6668 97.0087 15.7094 97.9661 14.5335 97.9661ZM87.067 112.899H52.9336V93.6994H87.067V112.899ZM125.467 93.6994C126.643 93.6994 127.6 94.6567 127.6 95.8328C127.6 97.0087 126.643 97.9661 125.467 97.9661C124.291 97.9661 123.334 97.0087 123.334 95.8328C123.334 94.6567 124.291 93.6994 125.467 93.6994ZM107.15 57.4327H113.917L109.65 61.6994H102.884L107.15 57.4327ZM98.6171 65.966H105.384L101.117 70.2327H94.3504L98.6171 65.966ZM92.5838 78.7661H85.817L90.0837 74.4994H96.8505L92.5838 78.7661ZM105.384 78.7661H98.6171L102.884 74.4994H109.65L105.384 78.7661ZM113.917 70.2327H107.15L111.417 65.966H118.185L113.917 70.2327ZM122.451 61.6994H115.684L119.951 57.4327H126.718L122.451 61.6994Z" fill="#0080C8"/>
<path d="M70.0003 44.6666C79.4264 44.6666 87.067 37.026 87.067 27.5999C87.067 18.1738 79.4264 10.5332 70.0003 10.5332C60.5742 10.5332 52.9336 18.1738 52.9336 27.5999C52.944 37.0207 60.5795 44.6562 70.0003 44.6666ZM70.0003 14.7999C77.069 14.7999 82.8003 20.5312 82.8003 27.5999C82.8003 34.6686 77.069 40.3999 70.0003 40.3999C62.9316 40.3999 57.2003 34.6686 57.2003 27.5999C57.2076 20.5333 62.9337 14.8072 70.0003 14.7999Z" fill="#FFAB48"/>
<path d="M67.8672 2H72.1339V8.40001H67.8672V2Z" fill="#FFAB48"/>
<path d="M50.3906 11.0068L53.4072 7.99023L57.9322 12.5162L54.9145 15.5329L50.3906 11.0068Z" fill="#FFAB48"/>
<path d="M44.3984 25.4668H50.7985V29.7335H44.3984V25.4668Z" fill="#FFAB48"/>
<path d="M50.3906 44.1958L54.9155 39.6699L57.9333 42.6865L53.4084 47.2125L50.3906 44.1958Z" fill="#FFAB48"/>
<path d="M82.0703 42.6827L85.0868 39.666L89.6119 44.1921L86.5942 47.2088L82.0703 42.6827Z" fill="#FFAB48"/>
<path d="M89.1992 25.4668H95.5992V29.7335H89.1992V25.4668Z" fill="#FFAB48"/>
<path d="M82.0703 12.5162L86.5952 7.99023L89.6119 11.008L85.0868 15.5329L82.0703 12.5162Z" fill="#FFAB48"/>
<path d="M67.8672 46.8008H72.1339V53.2008H67.8672V46.8008Z" fill="#FFAB48"/>
</g>
<defs>
<filter id="filter0_d_109_14329" x="0" y="0" width="140" height="127.168" filterUnits="userSpaceOnUse" color-interpolation-filters="sRGB">
<feFlood flood-opacity="0" result="BackgroundImageFix"/>
<feColorMatrix in="SourceAlpha" type="matrix" values="0 0 0 0 0 0 0 0 0 0 0 0 0 0 0 0 0 0 127 0" result="hardAlpha"/>
<feOffset dy="4"/>
<feGaussianBlur stdDeviation="3"/>
<feComposite in2="hardAlpha" operator="out"/>
<feColorMatrix type="matrix" values="0 0 0 0 0 0 0 0 0 0 0 0 0 0 0 0 0 0 0.1 0"/>
<feBlend mode="normal" in2="BackgroundImageFix" result="effect1_dropShadow_109_14329"/>
<feBlend mode="normal" in="SourceGraphic" in2="effect1_dropShadow_109_14329" result="shape"/>
</filter>
</defs>
</svg>
