<svg width="140" height="141" viewBox="0 0 140 141" fill="none" xmlns="http://www.w3.org/2000/svg">
<g filter="url(#filter0_d_109_14301)">
<path d="M31.9999 117.998H36V115.998H38V111.998H36V109.998H31.9999V111.998H30V115.998H31.9999V117.998Z" fill="#0080C8"/>
<path d="M13 111.998H21V115.998H13V111.998Z" fill="#0080C8"/>
<path d="M42.5063 45.9974H84.9957C86.2968 46.0139 87.5839 45.7237 88.7552 45.1501C89.9265 44.5764 90.9499 43.7347 91.7447 42.6918C92.5394 41.6488 93.0837 40.4329 93.3346 39.1404C93.5853 37.8478 93.5358 36.514 93.1897 35.2442C95.4865 33.9689 97.4603 32.1727 98.957 29.9965C100.454 27.8201 101.432 25.3225 101.816 22.6994C102.201 20.0763 101.98 17.3989 101.171 14.8766C100.363 12.3544 98.9886 10.0558 97.1561 8.16069C95.3237 6.26581 93.0829 4.82588 90.6091 3.95378C88.1354 3.08167 85.4958 2.80106 82.8971 3.13397C80.2983 3.46689 77.8109 4.40415 75.6298 5.87252C73.4485 7.34071 71.6326 9.30037 70.324 11.5975C70.2582 11.5975 70.1924 11.5975 70.1244 11.5975C67.937 11.6069 65.7817 12.1299 63.8278 13.1256C61.874 14.1214 60.175 15.5624 58.8646 17.3356C57.0831 16.4262 55.1234 15.9318 53.1287 15.8881C49.7491 15.8916 46.5088 17.2521 44.119 19.6715C41.7293 22.0907 40.3852 25.3708 40.3818 28.792V29.0631C38.3773 29.5849 36.6297 30.8293 35.4671 32.5629C34.3046 34.2965 33.807 36.4 34.0677 38.4786C34.3286 40.5572 35.3296 42.468 36.8835 43.8525C38.4371 45.2369 40.4365 45.9996 42.5063 45.9974ZM84.9957 7.28546C87.824 7.28179 90.5728 8.23135 92.8088 9.98455C95.0448 11.7379 96.6405 14.1949 97.3441 16.968C98.0477 19.741 97.8191 22.6724 96.6946 25.2994C95.5699 27.9265 93.6132 30.0997 91.1334 31.4761C90.3442 30.6299 89.393 29.9554 88.3377 29.494C87.2825 29.0325 86.1452 28.7937 84.9957 28.792H84.8407C84.9442 28.08 84.996 27.3613 84.9957 26.6415C84.9904 23.4952 84.0126 20.4292 82.1995 17.8739C80.3864 15.3183 77.8288 13.4012 74.8854 12.3911C76.0696 10.8106 77.5977 9.52794 79.3513 8.64244C81.1047 7.75694 83.0361 7.29262 84.9957 7.28546ZM42.5063 33.0935C43.0697 33.0935 43.6102 32.8668 44.0086 32.4636C44.4069 32.0602 44.6308 31.5131 44.6308 30.9428V28.792C44.6308 26.5105 45.526 24.3225 47.1197 22.7092C48.7134 21.0958 50.8749 20.1894 53.1287 20.1894C54.9793 20.2569 56.7704 20.869 58.2827 21.9508C58.5207 22.1202 58.7908 22.2382 59.0758 22.2975C59.361 22.357 59.6551 22.3562 59.94 22.2959C60.2248 22.2353 60.4944 22.1162 60.7319 21.9459C60.9694 21.7756 61.1697 21.5577 61.3206 21.3058C62.188 19.6988 63.4587 18.3519 65.0043 17.4007C66.55 16.4495 68.3161 15.9278 70.1244 15.8881C71.8249 15.8839 73.5017 16.2941 75.0125 17.0842C76.5235 17.874 77.8245 19.0205 78.8056 20.4267C79.7867 21.8328 80.4191 23.4574 80.6493 25.163C80.8795 26.8687 80.701 28.6056 80.1285 30.2266C80.0155 30.5507 79.9807 30.8978 80.0275 31.2384C80.0741 31.5788 80.2008 31.9031 80.3968 32.1839C80.5927 32.4647 80.8525 32.6939 81.154 32.8521C81.4555 33.0103 81.7901 33.0931 82.1299 33.0935H84.9957C86.1226 33.0935 87.2034 33.5466 88.0002 34.3534C88.7969 35.1599 89.2447 36.2539 89.2447 37.3947C89.2447 38.5357 88.7969 39.6297 88.0002 40.4363C87.2034 41.243 86.1226 41.6961 84.9957 41.6961H42.5063C41.3794 41.6961 40.2988 41.243 39.5018 40.4363C38.705 39.6297 38.2574 38.5357 38.2574 37.3947C38.2574 36.2539 38.705 35.1599 39.5018 34.3534C40.2988 33.5466 41.3794 33.0935 42.5063 33.0935Z" fill="#FFAB48"/>
<path d="M106 17.998H111V22.998H106V17.998Z" fill="#FFAB48"/>
<path d="M102 32.8018L104.196 28.998L108 31.1943L105.804 34.998L102 32.8018Z" fill="#FFAB48"/>
<path d="M94 40.1943L97.8039 37.998L100 41.8018L96.1963 43.998L94 40.1943Z" fill="#FFAB48"/>
<path d="M102 8.19415L105.804 5.99805L108 9.80195L104.196 11.998L102 8.19415Z" fill="#FFAB48"/>
<path d="M127.601 111.814H105.669L104.022 106.877C103.881 106.453 103.61 106.084 103.247 105.822C102.884 105.56 102.448 105.419 102 105.419H95.6V96.8928H131.866C132.192 96.8928 132.51 96.8189 132.802 96.6769C133.093 96.5348 133.35 96.3282 133.548 96.0726C133.748 95.8172 133.887 95.5196 133.954 95.2028C134.021 94.8857 134.014 94.5576 133.936 94.2433L123.27 51.6116C123.153 51.1507 122.888 50.7416 122.513 50.4491C122.138 50.1568 121.675 49.998 121.2 49.998H63.6C63.1081 49.9979 62.6314 50.1676 62.2505 50.4784C61.8695 50.7891 61.6077 51.2218 61.5092 51.7033L52.9759 94.335C52.9127 94.6447 52.9191 94.9647 52.9948 95.2715C53.0705 95.5784 53.2138 95.8647 53.4139 96.1095C53.614 96.3544 53.8661 96.5517 54.1519 96.6872C54.4379 96.8227 54.7503 96.8929 55.0667 96.8928H91.3334V105.419H84.9333C84.4858 105.419 84.0496 105.56 83.6866 105.822C83.3238 106.084 83.0524 106.453 82.9109 106.877L78.6442 119.667C78.5375 119.988 78.5084 120.328 78.5593 120.662C78.6103 120.995 78.7398 121.312 78.9373 121.586C79.1348 121.859 79.3946 122.083 79.6951 122.238C79.9959 122.39 80.3288 122.472 80.6667 122.472H106.267C106.605 122.472 106.938 122.39 107.238 122.238C107.539 122.083 107.799 121.859 107.996 121.586C108.193 121.312 108.323 120.995 108.374 120.662C108.425 120.328 108.396 119.988 108.289 119.667L107.092 116.077H127.601C128.165 116.077 128.708 116.302 129.108 116.702C129.509 117.101 129.732 117.643 129.732 118.209V124.604C129.732 125.168 129.509 125.71 129.108 126.11C128.708 126.51 128.165 126.734 127.601 126.734H59.3098C58.9104 126.749 58.5157 126.645 58.1745 126.438C57.8332 126.228 57.5605 125.926 57.3897 125.565C57.2024 125.155 57.146 124.697 57.2281 124.253C57.31 123.809 57.5266 123.402 57.8485 123.085C58.0416 122.889 58.2727 122.732 58.5279 122.627C58.7831 122.521 59.0571 122.469 59.3333 122.472H65.7567C67.0121 122.485 68.2429 122.123 69.2916 121.434C70.3404 120.744 71.1596 119.758 71.6448 118.602C72.1412 117.427 72.2753 116.132 72.0301 114.882C71.7849 113.632 71.1716 112.483 70.2689 111.584C69.6798 110.978 68.9743 110.498 68.195 110.171C67.4157 109.844 66.5784 109.678 65.7332 109.682H44.3999V103.288C44.3999 102.722 44.1751 102.18 43.7752 101.78C43.375 101.381 42.8324 101.156 42.2666 101.156H35.8666V96.8928H31.5998V101.156H18.7999V96.8928H14.5332V101.156H8.1332C7.5674 101.156 7.02491 101.381 6.62478 101.78C6.22464 102.18 6 102.722 6 103.288V124.604C6 126.299 6.67411 127.926 7.87452 129.126C9.07474 130.325 10.7026 130.998 12.4 130.998H38C39.6974 130.998 41.3252 130.325 42.5254 129.126C43.7257 127.926 44.3999 126.299 44.3999 124.604V113.945H65.7332C66.0181 113.945 66.3001 114.002 66.5619 114.115C66.8235 114.228 67.0592 114.393 67.2544 114.6C67.5648 114.915 67.7718 115.317 67.848 115.753C67.9243 116.188 67.866 116.637 67.6811 117.038C67.5103 117.399 67.2376 117.703 66.8965 117.91C66.5551 118.12 66.1605 118.223 65.7611 118.209H59.3333C58.4975 118.203 57.669 118.363 56.8969 118.683C56.1249 119.004 55.4248 119.475 54.8384 120.069C53.9205 120.968 53.2945 122.121 53.0418 123.38C52.7893 124.639 52.9216 125.945 53.4219 127.127C53.907 128.284 54.7262 129.27 55.775 129.959C56.8238 130.648 58.0544 131.01 59.3098 130.998H127.601C129.297 130.998 130.925 130.325 132.126 129.126C133.326 127.926 134 126.299 134 124.604V118.209C134 116.513 133.326 114.886 132.126 113.687C130.925 112.488 129.297 111.814 127.601 111.814ZM102.864 81.9717L102.224 75.577H113.051L114.331 81.9717H102.864ZM115.184 86.235L116.464 92.6297H103.931L103.291 86.235H115.184ZM97.9467 75.577L98.5866 81.9717H88.3466L88.9867 75.577H97.9467ZM89.4347 71.3138L90.0746 64.9191H96.88L97.52 71.3138H89.4347ZM117.403 75.577H124.87L126.47 81.9717H118.683L117.403 75.577ZM123.803 71.3138H116.549L115.269 64.9191H122.201L123.803 71.3138ZM112.197 71.3138H101.797L101.157 64.9191H110.917L112.197 71.3138ZM100.731 60.656L100.091 54.2611H108.784L110.064 60.656H100.731ZM96.4534 60.656H90.5013L91.1414 54.2611H95.8134L96.4534 60.656ZM86.2132 60.656H76.8692L78.1494 54.2611H86.8533L86.2132 60.656ZM85.7867 64.9191L85.1466 71.3138H74.736L76.016 64.9191H85.7867ZM70.3839 71.3138H61.9338L63.2139 64.9191H71.664L70.3839 71.3138ZM69.5307 75.577L68.2507 81.9717H59.8026L61.0827 75.577H69.5307ZM73.8826 75.577H84.7199L84.08 81.9717H72.6027L73.8826 75.577ZM83.6533 86.235L83.0133 92.6297H70.4693L71.7492 86.235H83.6533ZM87.9414 86.235H99.0133L99.6534 92.6297H87.28L87.9414 86.235ZM120.816 92.6297L119.536 86.235H127.533L129.134 92.6297H120.816ZM121.134 60.656H114.416L113.136 54.2611H119.536L121.134 60.656ZM73.7972 54.2611L72.5173 60.656H64.0671L65.3471 54.2611H73.7972ZM58.9493 86.235H67.3973L66.1173 92.6297H57.6694L58.9493 86.235ZM83.6277 118.209L86.4714 109.682H100.462L103.306 118.209H83.6277ZM40.1334 124.604C40.1334 125.168 39.9085 125.71 39.5084 126.11C39.1083 126.51 38.5658 126.734 38 126.734H12.4C11.8342 126.734 11.2915 126.51 10.8914 126.11C10.4914 125.71 10.2666 125.168 10.2666 124.604V105.419H40.1334V124.604Z" fill="#0080C8"/>
<path d="M13.0722 73.9066H23.4287V88.8599C23.4284 89.3415 23.5857 89.8092 23.8754 90.1869C24.1651 90.5646 24.57 90.8304 25.0244 90.941C25.479 91.0515 25.9564 91.0005 26.3792 90.7961C26.802 90.5916 27.1454 90.2458 27.3538 89.8147L39.7817 64.1805C39.9395 63.8548 40.0139 63.4927 39.9979 63.1291C39.9819 62.7652 39.8761 62.4118 39.6903 62.1021C39.5045 61.7924 39.2451 61.5366 38.9366 61.3594C38.6282 61.1822 38.2809 61.0893 37.9277 61.0895H27.5714V46.1362C27.5718 45.6546 27.4144 45.1869 27.1248 44.8092C26.8351 44.4315 26.4301 44.1657 25.9755 44.055C25.5211 43.9446 25.0437 43.9956 24.6207 44.2C24.1979 44.4045 23.8545 44.7503 23.6461 45.1814L11.2184 70.8156C11.0606 71.1413 10.9862 71.5032 11.0021 71.867C11.018 72.2309 11.1239 72.5843 11.3097 72.894C11.4954 73.2037 11.7549 73.4595 12.0633 73.6367C12.3719 73.8139 12.7191 73.9068 13.0722 73.9066ZM23.4287 55.1852V63.2257C23.4287 63.7922 23.647 64.3356 24.0353 64.7361C24.4238 65.1368 24.9507 65.3619 25.5001 65.3619H34.5764L27.5714 79.8109V71.7704C27.5714 71.2039 27.3531 70.6605 26.9646 70.26C26.5761 69.8593 26.0494 69.6342 25.5001 69.6342H16.4236L23.4287 55.1852Z" fill="#FFAB48"/>
</g>
<defs>
<filter id="filter0_d_109_14301" x="0" y="0.998047" width="140" height="140" filterUnits="userSpaceOnUse" color-interpolation-filters="sRGB">
<feFlood flood-opacity="0" result="BackgroundImageFix"/>
<feColorMatrix in="SourceAlpha" type="matrix" values="0 0 0 0 0 0 0 0 0 0 0 0 0 0 0 0 0 0 127 0" result="hardAlpha"/>
<feOffset dy="4"/>
<feGaussianBlur stdDeviation="3"/>
<feComposite in2="hardAlpha" operator="out"/>
<feColorMatrix type="matrix" values="0 0 0 0 0 0 0 0 0 0 0 0 0 0 0 0 0 0 0.1 0"/>
<feBlend mode="normal" in2="BackgroundImageFix" result="effect1_dropShadow_109_14301"/>
<feBlend mode="normal" in="SourceGraphic" in2="effect1_dropShadow_109_14301" result="shape"/>
</filter>
</defs>
</svg>
