<svg width="140" height="118" viewBox="0 0 140 118" fill="none" xmlns="http://www.w3.org/2000/svg">
<g filter="url(#filter0_d_109_14316)">
<path d="M127.6 82.0003H125.467V77.7336H121.2V82.0003H108.4V77.7336H104.133V82.0003H102C99.2978 82.0117 96.8938 83.719 95.9927 86.2669H70C68.8219 86.2669 67.8667 87.2221 67.8667 88.4003V96.9336C67.8667 98.1112 68.8219 99.0669 70 99.0669H82.8V103.334H46.5333V94.8003H55.0667C55.7239 94.8003 56.3438 94.4965 56.7489 93.9793C57.1531 93.4622 57.2959 92.7864 57.1365 92.1481L55.0032 83.6148C54.7646 82.6659 53.9114 82.0003 52.9333 82.0003H46.5333V79.8669H76.4C79.9343 79.8669 82.8 77.0013 82.8 73.4669V39.3336C82.8 35.7993 79.9343 32.9336 76.4 32.9336H12.4C8.86566 32.9336 6 35.7993 6 39.3336V73.4669C6 77.0013 8.86566 79.8669 12.4 79.8669H42.2667V82.0003H35.8667C34.8886 82.0003 34.0354 82.6659 33.7968 83.6148L31.6635 92.1481C31.5041 92.7864 31.6469 93.4622 32.0511 93.9793C32.4562 94.4965 33.0761 94.8003 33.7333 94.8003H42.2667V105.467C42.2667 106.645 43.2219 107.6 44.4 107.6H84.9333C86.1115 107.6 87.0667 106.645 87.0667 105.467V96.9336C87.0667 95.756 86.1115 94.8003 84.9333 94.8003H72.1333V90.5336H95.6V101.2C95.6 104.735 98.4657 107.6 102 107.6H127.6C131.135 107.6 134 104.735 134 101.2V88.4003C134 84.8659 131.135 82.0003 127.6 82.0003ZM65.7333 58.5336H78.5333V64.9336H65.7333V58.5336ZM61.4667 64.9336H46.5333V58.5336H61.4667V64.9336ZM65.7333 54.2669V47.8669H78.5333V54.2669H65.7333ZM61.4667 54.2669H46.5333V47.8669H61.4667V54.2669ZM46.5333 43.6003V37.2003H61.4667V43.6003H46.5333ZM42.2667 43.6003H29.4667V37.2003H42.2667V43.6003ZM42.2667 47.8669V54.2669H29.4667V47.8669H42.2667ZM25.2 54.2669H10.2667V47.8669H25.2V54.2669ZM25.2 58.5336V64.9336H10.2667V58.5336H25.2ZM29.4667 58.5336H42.2667V64.9336H29.4667V58.5336ZM42.2667 69.2003V75.6003H29.4667V69.2003H42.2667ZM46.5333 69.2003H61.4667V75.6003H46.5333V69.2003ZM76.4 75.6003H65.7333V69.2003H78.5333V73.4669C78.5333 74.645 77.5781 75.6003 76.4 75.6003ZM78.5333 39.3336V43.6003H65.7333V37.2003H76.4C77.5781 37.2003 78.5333 38.1555 78.5333 39.3336ZM12.4 37.2003H25.2V43.6003H10.2667V39.3336C10.2667 38.1555 11.2219 37.2003 12.4 37.2003ZM10.2667 73.4669V69.2003H25.2V75.6003H12.4C11.2219 75.6003 10.2667 74.645 10.2667 73.4669ZM37.5324 86.2669H51.2676L52.3343 90.5336H36.4657L37.5324 86.2669ZM129.733 101.2C129.733 102.378 128.778 103.334 127.6 103.334H102C100.822 103.334 99.8667 102.378 99.8667 101.2V88.4003C99.8667 87.2221 100.822 86.2669 102 86.2669H127.6C128.778 86.2669 129.733 87.2221 129.733 88.4003V101.2Z" fill="#0080C8"/>
<path d="M113.895 30.1433V7.81701C113.895 4.60932 111.286 2 108.078 2C104.871 2 102.261 4.60932 102.261 7.81701V30.1433C99.9666 31.9315 98.6172 34.67 98.6172 37.6053C98.6172 42.8223 102.861 47.0666 108.078 47.0666C113.295 47.0666 117.54 42.8223 117.54 37.6053C117.54 34.67 116.19 31.9315 113.895 30.1433ZM108.078 44.4149C104.323 44.4149 101.268 41.36 101.268 37.6053C101.268 35.3165 102.409 33.1938 104.32 31.9264L104.913 31.533V7.81701C104.913 6.0716 106.333 4.65165 108.078 4.65165C109.824 4.65165 111.244 6.07126 111.244 7.81701V31.533L111.836 31.9264C113.747 33.1938 114.888 35.3165 114.888 37.6053C114.888 41.36 111.833 44.4149 108.078 44.4149Z" fill="#FFAB48"/>
<path d="M109.403 33.1264V25.7261C109.403 24.9941 108.809 24.4004 108.077 24.4004C107.345 24.4004 106.752 24.9941 106.752 25.7261V33.1264C104.796 33.7007 103.363 35.5103 103.363 37.6492C103.363 40.2487 105.478 42.3632 108.077 42.3632C110.677 42.3632 112.791 40.2487 112.791 37.6492C112.791 35.5103 111.359 33.701 109.403 33.1264ZM108.077 39.7116C106.94 39.7116 106.015 38.7866 106.015 37.6492C106.015 36.5123 106.94 35.5869 108.077 35.5869C109.214 35.5869 110.14 36.5123 110.14 37.6492C110.14 38.7866 109.214 39.7116 108.077 39.7116Z" fill="#FFAB48"/>
<path d="M115.859 6.72266H123.152V9.37396H115.859V6.72266Z" fill="#FFAB48"/>
<path d="M115.859 12.6426H120.831V15.2942H115.859V12.6426Z" fill="#FFAB48"/>
<path d="M115.859 18.5605H123.152V21.2119H115.859V18.5605Z" fill="#FFAB48"/>
<path d="M115.859 24.4805H120.831V27.1321H115.859V24.4805Z" fill="#FFAB48"/>
<path d="M99.4569 23.8756L100.783 21.5795L98.4103 20.2097L99.9963 19.5897L99.0309 17.1199L95.4703 18.5121L93.1535 17.1747C93.1755 17.0152 93.1878 16.8525 93.1878 16.6868C93.1878 16.5214 93.1755 16.3588 93.1535 16.1992L95.4703 14.8617L99.0309 16.2538L99.9963 13.7844L98.4103 13.1642L100.783 11.7943L99.4569 9.49831L97.0844 10.8677L97.3402 9.18394L94.719 8.78544L94.1443 12.5652L91.8258 13.9037C91.5705 13.7044 91.2874 13.539 90.9829 13.4151V10.7399L93.9687 8.35228L92.3131 6.28141L90.9829 7.34484V4.60547H88.3313V7.34484L87.0009 6.28141L85.3451 8.35228L88.3313 10.7399V13.4151C88.0266 13.539 87.7437 13.704 87.4882 13.9037L85.1697 12.5652L84.5952 8.78544L81.9738 9.18394L82.2296 10.8677L79.8572 9.49797L78.5312 11.7943L80.9037 13.1639L79.3177 13.7841L80.2831 16.2538L83.8439 14.8613L86.1606 16.1989C86.1382 16.3584 86.1263 16.5214 86.1263 16.6868C86.1263 16.8525 86.1385 17.0152 86.1606 17.1747L83.8439 18.5121L80.2831 17.1199L79.3177 19.5893L80.9037 20.2097L78.5312 21.5795L79.8572 23.8756L82.2296 22.5057L81.9734 24.1898L84.5949 24.5883L85.1697 20.8086L87.4878 19.47C87.7433 19.6695 88.0266 19.8349 88.3313 19.9586V22.6337L85.3451 25.0213L87.0009 27.0925L88.3309 26.0286V28.7679H90.9826V26.0286L92.3127 27.0922L93.9687 25.0213L90.9826 22.6337V19.9586C91.287 19.8349 91.5705 19.6695 91.8258 19.47L94.1443 20.8086L94.719 24.5883L97.3402 24.1895L97.0844 22.5057L99.4569 23.8756ZM90.5366 16.6868C90.5366 17.1718 90.1419 17.5662 89.657 17.5662C89.1718 17.5662 88.7776 17.1718 88.7776 16.6868C88.7776 16.2019 89.1721 15.8075 89.657 15.8075C90.1419 15.8075 90.5366 16.2019 90.5366 16.6868Z" fill="#FFAB48"/>
</g>
<defs>
<filter id="filter0_d_109_14316" x="0" y="0" width="140" height="117.6" filterUnits="userSpaceOnUse" color-interpolation-filters="sRGB">
<feFlood flood-opacity="0" result="BackgroundImageFix"/>
<feColorMatrix in="SourceAlpha" type="matrix" values="0 0 0 0 0 0 0 0 0 0 0 0 0 0 0 0 0 0 127 0" result="hardAlpha"/>
<feOffset dy="4"/>
<feGaussianBlur stdDeviation="3"/>
<feComposite in2="hardAlpha" operator="out"/>
<feColorMatrix type="matrix" values="0 0 0 0 0 0 0 0 0 0 0 0 0 0 0 0 0 0 0.1 0"/>
<feBlend mode="normal" in2="BackgroundImageFix" result="effect1_dropShadow_109_14316"/>
<feBlend mode="normal" in="SourceGraphic" in2="effect1_dropShadow_109_14316" result="shape"/>
</filter>
</defs>
</svg>
