<svg width="20" height="21" viewBox="0 0 20 21" fill="none" xmlns="http://www.w3.org/2000/svg">
<path d="M18.75 0.734375H0.78125C0.349121 0.734375 0 1.0835 0 1.51562V19.4844C0 19.9165 0.349121 20.2656 0.78125 20.2656H18.75C19.1821 20.2656 19.5312 19.9165 19.5312 19.4844V1.51562C19.5312 1.0835 19.1821 0.734375 18.75 0.734375ZM17.9688 18.7031H13.4741V12.7021H16.0132L16.394 9.75537H13.4741V7.87305C13.4741 7.01855 13.7109 6.4375 14.9341 6.4375H16.4941V3.80078C16.2231 3.76416 15.2979 3.68359 14.2188 3.68359C11.9678 3.68359 10.4272 5.05811 10.4272 7.58008V9.75293H7.8833V12.6997H10.4297V18.7031H1.5625V2.29688H17.9688V18.7031Z" fill="white"/>
</svg>
