<svg width="151" height="52" viewBox="0 0 151 52" fill="none" xmlns="http://www.w3.org/2000/svg">
<ellipse cx="38.7148" cy="39.5" rx="7.15905" ry="9.12403" transform="rotate(45.5505 38.7148 39.5)" fill="white"/>
<ellipse cx="25.72" cy="27.7994" rx="2.73085" ry="5.5088" transform="rotate(45.5505 25.72 27.7994)" fill="white"/>
<ellipse cx="20.2138" cy="22.6512" rx="1.62251" ry="4.01168" transform="rotate(45.5505 20.2138 22.6512)" fill="white"/>
<ellipse cx="28.7469" cy="18.4404" rx="2.05253" ry="4.74756" transform="rotate(48.9163 28.7469 18.4404)" fill="white"/>
<ellipse cx="16.1413" cy="30.669" rx="2.05253" ry="4.74756" transform="rotate(40.5252 16.1413 30.669)" fill="white"/>
<ellipse cx="9.263" cy="32.9511" rx="1.60297" ry="4.35426" transform="rotate(37.6088 9.263 32.9511)" fill="white"/>
<ellipse cx="30.8607" cy="11.5993" rx="1.45697" ry="4.28832" transform="rotate(49.9959 30.8607 11.5993)" fill="white"/>
<ellipse cx="41.7365" cy="5.42046" rx="1.9291" ry="5.5766" transform="rotate(55.1771 41.7365 5.42046)" fill="white"/>
<ellipse cx="40.9858" cy="12.562" rx="2.62832" ry="6.28995" transform="rotate(55.1771 40.9858 12.562)" fill="white"/>
<ellipse cx="39.8792" cy="23.1155" rx="4.02377" ry="7.37377" transform="rotate(55.1771 39.8792 23.1155)" fill="white"/>
<ellipse cx="21.3385" cy="40.9652" rx="4.04193" ry="6.71278" transform="rotate(32.7342 21.3385 40.9652)" fill="white"/>
<ellipse cx="11.2021" cy="42.1355" rx="2.46577" ry="5.70873" transform="rotate(32.7342 11.2021 42.1355)" fill="white"/>
<ellipse cx="4.26901" cy="42.855" rx="1.86697" ry="4.98934" transform="rotate(32.7342 4.26901 42.855)" fill="white"/>
<ellipse cx="16.8436" cy="19.539" rx="1.0569" ry="3.3571" transform="rotate(45.5505 16.8436 19.539)" fill="white"/>
<ellipse cx="23.0021" cy="16.0351" rx="1.2448" ry="3.58294" transform="rotate(47.7018 23.0021 16.0351)" fill="white"/>
<ellipse cx="13.5084" cy="25.6976" rx="1.1297" ry="3.6302" transform="rotate(41.5099 13.5084 25.6976)" fill="white"/>
<path d="M66.1343 3V25H61.2148V3H66.1343Z" fill="white"/>
<path d="M88.5042 3V25H84.3301L76.2304 12.3027H76.1012V25H71.1817V3H75.4154L83.4257 15.6758H83.5947V3H88.5042Z" fill="white"/>
<path d="M92.8907 7.31836V3H110.094V7.31836H103.922V25H99.0723V7.31836H92.8907Z" fill="white"/>
<path d="M114.456 25V3H128.647V7.31836H119.375V11.8301H127.922V16.1592H119.375V20.6816H128.647V25H114.456Z" fill="white"/>
<path d="M133.687 25V3H142.095C143.619 3 144.934 3.2972 146.041 3.8916C147.154 4.47884 148.012 5.32389 148.615 6.42676C149.218 7.52246 149.519 8.82227 149.519 10.3262C149.519 11.8516 149.211 13.1478 148.595 14.2148C147.979 15.2747 147.104 16.084 145.971 16.6426C144.838 17.194 143.497 17.4697 141.946 17.4697H136.629V13.2803H141.032C141.774 13.2803 142.393 13.1764 142.89 12.9688C143.394 12.7539 143.775 12.4316 144.033 12.002C144.292 11.5651 144.421 11.0065 144.421 10.3262C144.421 9.64583 144.292 9.08366 144.033 8.63965C143.775 8.18848 143.394 7.85189 142.89 7.62988C142.387 7.40072 141.767 7.28613 141.032 7.28613H138.607V25H133.687ZM145.146 14.9453L150.215 25H144.848L139.879 14.9453H145.146Z" fill="white"/>
<path d="M66.8373 46.4207C65.2617 46.4207 63.9026 46.1042 62.7599 45.4714C61.6244 44.8321 60.7479 43.941 60.1304 42.798C59.52 41.6485 59.2148 40.3118 59.2148 38.7878C59.2148 37.2638 59.52 35.9207 60.1304 34.7583C60.7479 33.5895 61.6066 32.679 62.7067 32.0268C63.8139 31.3681 65.1056 31.0387 66.5818 31.0387C67.4335 31.0387 68.2745 31.1679 69.1049 31.4262C69.9353 31.6845 70.6912 32.1042 71.3725 32.6854C72.0539 33.2601 72.5968 34.0221 73.0014 34.9714C73.4059 35.9207 73.6082 37.0895 73.6082 38.4779V39.4465H61.0034V37.4705H71.0531C71.0531 36.631 70.8686 35.8819 70.4996 35.2232C70.1376 34.5646 69.6195 34.0447 68.9452 33.6637C68.2781 33.2827 67.4903 33.0923 66.5818 33.0923C65.5811 33.0923 64.7153 33.3183 63.9842 33.7703C63.2603 34.2159 62.7032 34.797 62.3128 35.5138C61.9225 36.2306 61.7273 36.9991 61.7273 37.8192V39.1365C61.7273 40.2601 61.9402 41.2126 62.366 41.994C62.799 42.7689 63.3987 43.3598 64.1652 43.7666C64.9317 44.167 65.8224 44.3672 66.8373 44.3672C67.4974 44.3672 68.0936 44.2832 68.6259 44.1153C69.1653 43.941 69.6301 43.6827 70.0205 43.3404C70.4108 42.9917 70.7125 42.559 70.9254 42.0424L73.3527 42.6624C73.0972 43.4114 72.6678 44.0701 72.0645 44.6384C71.4612 45.2002 70.716 45.6393 69.8289 45.9557C68.9417 46.2657 67.9445 46.4207 66.8373 46.4207Z" fill="white"/>
<path d="M79.0431 37.1605V46.1107H76.5307V31.2325H78.958V33.5572H79.1709C79.5541 32.8017 80.1361 32.1946 80.9168 31.7362C81.6975 31.2712 82.7053 31.0387 83.9403 31.0387C85.0475 31.0387 86.0162 31.2454 86.8466 31.6587C87.677 32.0655 88.3229 32.6854 88.7842 33.5185C89.2455 34.345 89.4762 35.3911 89.4762 36.6568V46.1107H86.9637V36.8118C86.9637 35.643 86.6302 34.7325 85.963 34.0803C85.2959 33.4216 84.3803 33.0923 83.2164 33.0923C82.4144 33.0923 81.6975 33.2505 81.0659 33.5669C80.4413 33.8833 79.948 34.345 79.5861 34.952C79.2241 35.559 79.0431 36.2952 79.0431 37.1605Z" fill="white"/>
<path d="M100.024 46.4207C98.4483 46.4207 97.0891 46.1042 95.9465 45.4714C94.8109 44.8321 93.9344 43.941 93.3169 42.798C92.7065 41.6485 92.4014 40.3118 92.4014 38.7878C92.4014 37.2638 92.7065 35.9207 93.3169 34.7583C93.9344 33.5895 94.7932 32.679 95.8932 32.0268C97.0004 31.3681 98.2921 31.0387 99.7684 31.0387C100.62 31.0387 101.461 31.1679 102.291 31.4262C103.122 31.6845 103.878 32.1042 104.559 32.6854C105.24 33.2601 105.783 34.0221 106.188 34.9714C106.592 35.9207 106.795 37.0895 106.795 38.4779V39.4465H94.1899V37.4705H104.24C104.24 36.631 104.055 35.8819 103.686 35.2232C103.324 34.5646 102.806 34.0447 102.132 33.6637C101.465 33.2827 100.677 33.0923 99.7684 33.0923C98.7676 33.0923 97.9018 33.3183 97.1707 33.7703C96.4468 34.2159 95.8897 34.797 95.4993 35.5138C95.109 36.2306 94.9138 36.9991 94.9138 37.8192V39.1365C94.9138 40.2601 95.1267 41.2126 95.5526 41.994C95.9855 42.7689 96.5852 43.3598 97.3517 43.7666C98.1182 44.167 99.009 44.3672 100.024 44.3672C100.684 44.3672 101.28 44.2832 101.812 44.1153C102.352 43.941 102.817 43.6827 103.207 43.3404C103.597 42.9917 103.899 42.559 104.112 42.0424L106.539 42.6624C106.284 43.4114 105.854 44.0701 105.251 44.6384C104.648 45.2002 103.903 45.6393 103.015 45.9557C102.128 46.2657 101.131 46.4207 100.024 46.4207Z" fill="white"/>
<path d="M109.717 46.1107V31.2325H112.144V33.4797H112.315C112.613 32.7435 113.152 32.1462 113.933 31.6877C114.714 31.2292 115.594 31 116.573 31C116.758 31 116.988 31.0032 117.265 31.0097C117.542 31.0161 117.751 31.0258 117.893 31.0387V33.3635C117.808 33.3441 117.613 33.315 117.308 33.2763C117.01 33.2311 116.694 33.2085 116.36 33.2085C115.565 33.2085 114.856 33.3602 114.231 33.6637C113.614 33.9608 113.124 34.3741 112.762 34.9036C112.407 35.4267 112.23 36.024 112.23 36.6956V46.1107H109.717Z" fill="white"/>
<path d="M126.075 52C124.861 52 123.818 51.8579 122.945 51.5738C122.072 51.2961 121.345 50.928 120.763 50.4696C120.188 50.0175 119.73 49.5332 119.389 49.0166L121.391 47.738C121.618 48.0092 121.905 48.3192 122.253 48.6679C122.601 49.0231 123.076 49.3298 123.68 49.5881C124.29 49.8529 125.088 49.9852 126.075 49.9852C127.395 49.9852 128.484 49.6946 129.343 49.1135C130.202 48.5323 130.631 47.6218 130.631 46.3819V43.3598H130.418C130.234 43.631 129.971 43.9668 129.631 44.3672C129.297 44.7611 128.814 45.113 128.183 45.423C127.558 45.7265 126.714 45.8782 125.649 45.8782C124.329 45.8782 123.144 45.5941 122.093 45.0258C121.05 44.4576 120.223 43.631 119.613 42.5461C119.01 41.4613 118.708 40.1439 118.708 38.5941C118.708 37.0701 119.002 35.7431 119.592 34.613C120.181 33.4765 121 32.5982 122.051 31.9783C123.101 31.3519 124.315 31.0387 125.692 31.0387C126.756 31.0387 127.601 31.2002 128.225 31.5231C128.857 31.8395 129.34 32.2011 129.673 32.6079C130.014 33.0083 130.277 33.3376 130.461 33.5959H130.717V31.2325H133.144V46.5369C133.144 47.8155 132.824 48.8552 132.186 49.6559C131.554 50.4631 130.702 51.054 129.631 51.4285C128.566 51.8095 127.381 52 126.075 52ZM125.99 43.8247C126.998 43.8247 127.849 43.6149 128.545 43.1951C129.24 42.7754 129.769 42.1716 130.131 41.3838C130.493 40.5959 130.674 39.6531 130.674 38.5554C130.674 37.4834 130.497 36.5374 130.142 35.7173C129.787 34.8971 129.262 34.2546 128.566 33.7897C127.871 33.3247 127.012 33.0923 125.99 33.0923C124.925 33.0923 124.038 33.3376 123.328 33.8284C122.626 34.3192 122.097 34.9779 121.742 35.8044C121.394 36.631 121.22 37.548 121.22 38.5554C121.22 39.5886 121.398 40.5023 121.753 41.2966C122.115 42.0844 122.647 42.7043 123.35 43.1564C124.059 43.6019 124.939 43.8247 125.99 43.8247Z" fill="white"/>
<path d="M138.462 51.69C138.036 51.69 137.656 51.6577 137.323 51.5932C136.989 51.5351 136.758 51.4769 136.631 51.4188L137.269 49.4041C137.88 49.5461 138.419 49.5978 138.888 49.559C139.356 49.5203 139.771 49.3298 140.133 48.9875C140.502 48.6518 140.839 48.1061 141.144 47.3505L141.613 46.1882L135.566 31.2325H138.291L142.805 43.0886H142.976L147.489 31.2325H150.215L143.274 48.2804C142.961 49.0489 142.575 49.685 142.113 50.1887C141.652 50.6988 141.116 51.0766 140.506 51.322C139.902 51.5673 139.221 51.69 138.462 51.69Z" fill="white"/>
</svg>
