<svg width="226" height="78" viewBox="0 0 226 78" fill="none" xmlns="http://www.w3.org/2000/svg">
<ellipse cx="58.2471" cy="58.4464" rx="10.7709" ry="13.7272" transform="rotate(45.5505 58.2471 58.4464)" fill="#0080C8"/>
<ellipse cx="38.695" cy="40.8424" rx="4.10858" ry="8.28804" transform="rotate(45.5505 38.695 40.8424)" fill="#0080C8"/>
<ellipse cx="30.4125" cy="33.0981" rx="2.44108" ry="6.03561" transform="rotate(45.5505 30.4125 33.0981)" fill="#0080C8"/>
<ellipse cx="43.251" cy="26.7637" rx="3.08805" ry="7.14275" transform="rotate(48.9163 43.251 26.7637)" fill="#004D84"/>
<ellipse cx="24.2842" cy="45.1586" rx="3.08805" ry="7.14275" transform="rotate(40.5252 24.2842 45.1586)" fill="#004D84"/>
<ellipse cx="13.9361" cy="48.5912" rx="2.41169" ry="6.55102" transform="rotate(37.6088 13.9361 48.5912)" fill="#004D84"/>
<ellipse cx="46.428" cy="16.4672" rx="2.19203" ry="6.45182" transform="rotate(49.9959 46.428 16.4672)" fill="#004D84"/>
<ellipse cx="62.7932" cy="7.17367" rx="2.90236" ry="8.39005" transform="rotate(55.1771 62.7932 7.17367)" fill="#004D84"/>
<ellipse cx="61.6613" cy="17.9158" rx="3.95433" ry="9.46329" transform="rotate(55.1771 61.6613 17.9158)" fill="#004D84"/>
<ellipse cx="59.9982" cy="33.797" rx="6.05379" ry="11.0939" transform="rotate(55.1771 59.9982 33.797)" fill="#004D84"/>
<ellipse cx="32.1034" cy="60.651" rx="6.08112" ry="10.0994" transform="rotate(32.7342 32.1034 60.651)" fill="#004D84"/>
<ellipse cx="16.8513" cy="62.4105" rx="3.70977" ry="8.58884" transform="rotate(32.7342 16.8513 62.4105)" fill="#004D84"/>
<ellipse cx="6.4209" cy="63.4973" rx="2.80888" ry="7.50651" transform="rotate(32.7342 6.4209 63.4973)" fill="#004D84"/>
<ellipse cx="25.34" cy="28.4182" rx="1.59012" ry="5.05079" transform="rotate(45.5505 25.34 28.4182)" fill="#0080C8"/>
<ellipse cx="34.6053" cy="23.1419" rx="1.87281" ry="5.39056" transform="rotate(47.7018 34.6053 23.1419)" fill="#004D84"/>
<ellipse cx="20.321" cy="37.6812" rx="1.69965" ry="5.46167" transform="rotate(41.5099 20.321 37.6812)" fill="#004D84"/>
<path d="M99.499 3.53125V36.6305H92.0977V3.53125H99.499Z" fill="#004D84"/>
<path d="M133.155 3.53125V36.6305H126.875L114.689 17.5273H114.494V36.6305H107.093V3.53125H113.463L125.514 22.6021H125.768V3.53125H133.155Z" fill="#004D84"/>
<path d="M139.754 10.0283V3.53125H165.637V10.0283H156.351V36.6305H149.055V10.0283H139.754Z" fill="#004D84"/>
<path d="M172.199 36.6305V3.53125H193.551V10.0283H179.6V16.8162H192.459V23.3294H179.6V30.1335H193.551V36.6305H172.199Z" fill="#004D84"/>
<path d="M201.133 36.6305V3.53125H213.783C216.076 3.53125 218.054 3.97839 219.719 4.87267C221.394 5.75618 222.685 7.02757 223.592 8.68684C224.499 10.3353 224.952 12.2909 224.952 14.5535C224.952 16.8485 224.489 18.7987 223.562 20.4041C222.635 21.9987 221.319 23.2162 219.614 24.0566C217.91 24.8863 215.891 25.3011 213.559 25.3011H205.559V18.998H212.183C213.3 18.998 214.232 18.8418 214.979 18.5293C215.737 18.2061 216.31 17.7212 216.699 17.0748C217.087 16.4175 217.282 15.5771 217.282 14.5535C217.282 13.53 217.087 12.6842 216.699 12.0162C216.31 11.3374 215.737 10.831 214.979 10.497C214.222 10.1522 213.29 9.97978 212.183 9.97978H208.535V36.6305H201.133ZM218.373 21.5031L225.999 36.6305H217.925L210.449 21.5031H218.373Z" fill="#004D84"/>
<path d="M100.558 68.8568C98.1875 68.8568 96.1426 68.3807 94.4235 67.4286C92.715 66.4668 91.3963 65.126 90.4673 63.4064C89.549 61.6771 89.0898 59.666 89.0898 57.3731C89.0898 55.0803 89.549 53.0594 90.4673 51.3107C91.3963 49.5522 92.6883 48.1823 94.3434 47.201C96.0092 46.21 97.9525 45.7145 100.174 45.7145C101.455 45.7145 102.72 45.9089 103.97 46.2975C105.219 46.6861 106.356 47.3176 107.381 48.192C108.406 49.0567 109.223 50.2031 109.832 51.6313C110.44 53.0594 110.745 54.8179 110.745 56.9068V58.3641H91.7807V55.3911H106.901C106.901 54.1281 106.623 53.0011 106.068 52.0102C105.523 51.0192 104.744 50.2371 103.729 49.6639C102.726 49.0907 101.54 48.8041 100.174 48.8041C98.668 48.8041 97.3653 49.1441 96.2654 49.8242C95.1763 50.4946 94.3381 51.3689 93.7508 52.4474C93.1635 53.5258 92.8698 54.6819 92.8698 55.9158V57.8977C92.8698 59.5882 93.1902 61.0213 93.8309 62.1968C94.4822 63.3627 95.3845 64.2517 96.5377 64.8637C97.6909 65.4661 99.031 65.7673 100.558 65.7673C101.551 65.7673 102.448 65.641 103.249 65.3884C104.06 65.126 104.76 64.7374 105.347 64.2225C105.934 63.6979 106.388 63.0469 106.708 62.2697L110.36 63.2024C109.976 64.3294 109.33 65.3204 108.422 66.1753C107.515 67.0206 106.393 67.6812 105.059 68.1573C103.724 68.6236 102.224 68.8568 100.558 68.8568Z" fill="#0080C8"/>
<path d="M118.922 54.9248V68.3904H115.142V46.006H118.794V49.5036H119.114C119.691 48.3669 120.566 47.4536 121.741 46.7638C122.915 46.0643 124.432 45.7145 126.29 45.7145C127.955 45.7145 129.413 46.0254 130.662 46.6472C131.911 47.2593 132.883 48.192 133.577 49.4453C134.271 50.6889 134.618 52.2628 134.618 54.167V68.3904H130.838V54.4002C130.838 52.6417 130.336 51.2718 129.333 50.2905C128.329 49.2996 126.952 48.8041 125.2 48.8041C123.994 48.8041 122.915 49.0421 121.965 49.5181C121.025 49.9942 120.283 50.6889 119.739 51.6021C119.194 52.5154 118.922 53.6229 118.922 54.9248Z" fill="#0080C8"/>
<path d="M150.487 68.8568C148.117 68.8568 146.072 68.3807 144.353 67.4286C142.644 66.4668 141.326 65.126 140.397 63.4064C139.478 61.6771 139.019 59.666 139.019 57.3731C139.019 55.0803 139.478 53.0594 140.397 51.3107C141.326 49.5522 142.618 48.1823 144.273 47.201C145.939 46.21 147.882 45.7145 150.103 45.7145C151.384 45.7145 152.65 45.9089 153.899 46.2975C155.148 46.6861 156.286 47.3176 157.311 48.192C158.336 49.0567 159.153 50.2031 159.761 51.6313C160.37 53.0594 160.674 54.8179 160.674 56.9068V58.3641H141.71V55.3911H156.83C156.83 54.1281 156.552 53.0011 155.997 52.0102C155.453 51.0192 154.673 50.2371 153.659 49.6639C152.655 49.0907 151.47 48.8041 150.103 48.8041C148.597 48.8041 147.295 49.1441 146.195 49.8242C145.106 50.4946 144.268 51.3689 143.68 52.4474C143.093 53.5258 142.799 54.6819 142.799 55.9158V57.8977C142.799 59.5882 143.12 61.0213 143.76 62.1968C144.412 63.3627 145.314 64.2517 146.467 64.8637C147.62 65.4661 148.96 65.7673 150.487 65.7673C151.48 65.7673 152.377 65.641 153.178 65.3884C153.99 65.126 154.689 64.7374 155.276 64.2225C155.864 63.6979 156.318 63.0469 156.638 62.2697L160.29 63.2024C159.905 64.3294 159.259 65.3204 158.352 66.1753C157.444 67.0206 156.323 67.6812 154.988 68.1573C153.653 68.6236 152.153 68.8568 150.487 68.8568Z" fill="#0080C8"/>
<path d="M165.071 68.3904V46.006H168.723V49.387H168.979C169.428 48.2794 170.239 47.3807 171.414 46.6909C172.588 46.0011 173.913 45.6562 175.386 45.6562C175.664 45.6562 176.011 45.6611 176.427 45.6708C176.844 45.6805 177.159 45.6951 177.372 45.7145V49.2121C177.244 49.183 176.95 49.1392 176.491 49.081C176.043 49.0129 175.568 48.9789 175.066 48.9789C173.87 48.9789 172.802 49.2073 171.862 49.6639C170.933 50.1108 170.197 50.7326 169.652 51.5293C169.118 52.3162 168.851 53.2149 168.851 54.2253V68.3904H165.071Z" fill="#0080C8"/>
<path d="M189.682 77.251C187.856 77.251 186.286 77.0372 184.973 76.6097C183.659 76.192 182.565 75.6382 181.689 74.9484C180.824 74.2683 180.135 73.5396 179.623 72.7624L182.634 70.8387C182.976 71.2468 183.408 71.7131 183.931 72.2378C184.455 72.7721 185.17 73.2336 186.078 73.6222C186.996 74.0206 188.197 74.2197 189.682 74.2197C191.668 74.2197 193.307 73.7825 194.599 72.9081C195.891 72.0337 196.537 70.6639 196.537 68.7985V64.2517H196.216C195.939 64.6597 195.544 65.1649 195.031 65.7673C194.529 66.3599 193.803 66.8894 192.853 67.3557C191.913 67.8124 190.643 68.0407 189.041 68.0407C187.055 68.0407 185.271 67.6132 183.691 66.7582C182.122 65.9033 180.878 64.6597 179.959 63.0275C179.052 61.3953 178.598 59.4134 178.598 57.0816C178.598 54.7888 179.041 52.7923 179.927 51.0921C180.813 49.3821 182.047 48.0608 183.627 47.1281C185.207 46.1857 187.033 45.7145 189.105 45.7145C190.707 45.7145 191.977 45.9574 192.917 46.4432C193.867 46.9193 194.593 47.4633 195.095 48.0754C195.608 48.6778 196.003 49.1732 196.28 49.5619H196.665V46.006H200.317V69.0317C200.317 70.9553 199.836 72.5195 198.875 73.7242C197.925 74.9387 196.644 75.8276 195.031 76.3911C193.429 76.9643 191.646 77.251 189.682 77.251ZM189.553 64.9512C191.07 64.9512 192.351 64.6354 193.397 64.0039C194.444 63.3724 195.239 62.464 195.784 61.2787C196.329 60.0934 196.601 58.675 196.601 57.0233C196.601 55.4106 196.334 53.9873 195.8 52.7534C195.266 51.5195 194.476 50.5528 193.429 49.8533C192.383 49.1538 191.091 48.8041 189.553 48.8041C187.952 48.8041 186.617 49.1732 185.549 49.9116C184.492 50.65 183.697 51.641 183.163 52.8846C182.639 54.1281 182.378 55.5077 182.378 57.0233C182.378 58.5778 182.645 59.9526 183.179 61.1476C183.723 62.3329 184.524 63.2655 185.581 63.9456C186.649 64.616 187.973 64.9512 189.553 64.9512Z" fill="#0080C8"/>
<path d="M208.318 76.7846C207.677 76.7846 207.106 76.736 206.604 76.6389C206.102 76.5514 205.755 76.464 205.563 76.3766L206.524 73.3453C207.442 73.5591 208.253 73.6368 208.958 73.5785C209.663 73.5202 210.288 73.2336 210.832 72.7187C211.387 72.2135 211.895 71.3925 212.354 70.2558L213.059 68.507L203.961 46.006H208.061L214.852 63.8436H215.109L221.9 46.006H226L215.557 71.6548C215.087 72.811 214.505 73.768 213.811 74.5258C213.117 75.2933 212.311 75.8616 211.393 76.2308C210.485 76.6 209.46 76.7846 208.318 76.7846Z" fill="#0080C8"/>
</svg>
